<svg xmlns="http://www.w3.org/2000/svg" xmlns:xlink="http://www.w3.org/1999/xlink" width="151" height="85" viewBox="0 0 151 85"><defs><path id="ts3za" d="M243.172 42.303c2.844-8.57 10.445-13.888 16.98-11.879 6.534 2.015 9.523 10.59 6.684 19.164-2.842 8.573-10.442 13.893-16.976 11.88-6.533-2.01-9.527-10.59-6.688-19.165z"/><path id="ts3zh" d="M241.5 62.465h27.002V29.42H241.5z"/><path id="ts3zb" d="M284.731 55.403c-6.246-1.913-13.644 3.52-16.518 12.131-2.874 8.61-.142 17.139 6.106 19.048 6.251 1.91 13.645-3.523 16.523-12.132 2.874-8.61.138-17.139-6.11-19.047z"/><path id="ts3zj" d="M266.48 87.525h26.11V54.45h-26.11z"/><path id="ts3zc" d="M230.976 64.63c6.151-1.946 8.668-11.195 5.62-20.657-3.05-9.464-10.515-15.56-16.671-13.61-6.15 1.947-8.667 11.192-5.622 20.656 3.055 9.466 10.514 15.559 16.673 13.611z"/><path id="ts3zl" d="M212.42 65.598h26.06V29.39h-26.06z"/><path id="ts3zd" d="M211.656 68.96c-3.057-9.433-10.524-15.514-16.674-13.582-6.15 1.932-8.656 11.145-5.599 20.577 3.06 9.431 10.526 15.514 16.676 13.577 6.149-1.93 8.657-11.142 5.597-20.571z"/><path id="ts3zn" d="M187.49 90.493h26.06V54.41h-26.06z"/><path id="ts3ze" d="M240.257 65.04h-1.46s-28.859 4.663-28.716 37.283c-.089 19.153 16.14 10.91 16.14 10.91s6.86-2.496 12.58-2.496l1.456-.151c5.714 0 12.579 2.447 12.579 2.447s16.235 8.426 16.141-10.723c.14-32.624-28.72-37.27-28.72-37.27z"/><path id="ts3zp" d="M209.5 115.577h60.068V64.47H209.5z"/><path id="ts3zf" d="M310.658 96.412V75.18h10.012v1.309h-8.492v7.721h7.666v1.276h-7.666v9.553H321v1.374zm-9.904-2.192c-1.454 1.68-3.67 2.52-6.645 2.52-2.975 0-5.19-.84-6.645-2.52-1.455-1.679-2.182-4.002-2.182-6.968V75.179h1.52v12.073c0 5.43 2.436 8.146 7.307 8.146s7.306-2.715 7.306-8.146V75.179h1.521v12.073c0 2.966-.727 5.289-2.182 6.968zm-32.687-18.026c-2.643 0-4.835.927-6.575 2.782-1.74 1.855-2.61 4.13-2.61 6.825 0 2.695.87 4.965 2.61 6.809 1.74 1.844 3.943 2.766 6.608 2.766 1.388 0 2.644-.262 3.767-.786-2.489-1.659-4.427-2.488-5.815-2.488-.793 0-1.52.153-2.18.458l-.497-.916a4.555 4.555 0 0 1 2.512-.72c.925 0 1.828.163 2.71.49.88.328 1.624.666 2.23 1.015.605.35 1.393.84 2.362 1.474 1.277-.852 2.285-1.992 3.023-3.421.738-1.43 1.107-2.995 1.107-4.697 0-2.685-.876-4.954-2.627-6.81-1.751-1.854-3.96-2.781-6.625-2.781zm.03 20.546c-3.06 0-5.626-1.058-7.696-3.174-2.07-2.116-3.105-4.706-3.105-7.77 0-3.065 1.035-5.655 3.105-7.77 2.07-2.116 4.636-3.174 7.697-3.174s5.621 1.058 7.68 3.174c2.06 2.115 3.089 4.7 3.089 7.754 0 1.81-.386 3.49-1.156 5.038-.771 1.549-1.828 2.824-3.172 3.828 5.242 3.075 9.272 4.93 12.09 5.562 1.454.349 2.853.523 4.196.523 1.343 0 2.791-.153 4.344-.458 1.552-.305 2.66-.622 3.32-.949l.363.85c-.837.394-2.054.78-3.65 1.162-1.597.382-3.094.573-4.493.573-1.398 0-2.89-.18-4.476-.54-1.585-.36-3.237-.932-4.955-1.718-1.718-.785-3.044-1.423-3.98-1.913-.936-.491-2.285-1.25-4.047-2.274-1.586.85-3.303 1.276-5.153 1.276zm-18.93-.328V75.18h1.52v21.233zm-26.267 0V75.048h.726l14.076 16.032c.507.567.975 1.128 1.404 1.685.43.556.656.845.678.867-.044-.524-.066-1.549-.066-3.076V75.18h1.52v21.364h-.727L226.17 80.25l-1.818-2.192c.044.437.066 1.462.066 3.076v15.278zm-9.904-2.192c-1.455 1.68-3.67 2.52-6.645 2.52-2.976 0-5.19-.84-6.645-2.52-1.455-1.679-2.182-4.002-2.182-6.968V75.179h1.52v12.073c0 5.43 2.436 8.146 7.307 8.146 4.87 0 7.306-2.715 7.306-8.146V75.179h1.52v12.073c0 2.966-.726 5.289-2.181 6.968zm-25.187 2.192V84.7h-16.223v11.712H170V73.02h1.586v10.273h16.223V73.02h1.586v23.392z"/><path id="ts3zr" d="M169.41 102.49h152.171V72.45H169.41z"/><clipPath id="ts3zg"><use xlink:href="#ts3za"/></clipPath><clipPath id="ts3zi"><use xlink:href="#ts3zb"/></clipPath><clipPath id="ts3zk"><use xlink:href="#ts3zc"/></clipPath><clipPath id="ts3zm"><use xlink:href="#ts3zd"/></clipPath><clipPath id="ts3zo"><use xlink:href="#ts3ze"/></clipPath><clipPath id="ts3zq"><use xlink:href="#ts3zf"/></clipPath></defs><g><g transform="translate(-170 -30)"><g><g/><g clip-path="url(#ts3zg)"><use fill="#d3c6b0" xlink:href="#ts3zh"/></g></g><g><g/><g clip-path="url(#ts3zi)"><use fill="#d3c6b0" xlink:href="#ts3zj"/></g></g><g><g/><g clip-path="url(#ts3zk)"><use fill="#d3c6b0" xlink:href="#ts3zl"/></g></g><g><g/><g clip-path="url(#ts3zm)"><use fill="#d3c6b0" xlink:href="#ts3zn"/></g></g><g><g/><g clip-path="url(#ts3zo)"><use fill="#d3c6b0" xlink:href="#ts3zp"/></g></g><g><g/><g clip-path="url(#ts3zq)"><use fill="#443a37" xlink:href="#ts3zr"/></g></g></g></g></svg>