<?xml version="1.0" encoding="UTF-8" standalone="no"?><!DOCTYPE svg PUBLIC "-//W3C//DTD SVG 1.1//EN" "http://www.w3.org/Graphics/SVG/1.1/DTD/svg11.dtd"><svg width="100%" height="100%" viewBox="0 0 2330 388" version="1.1" xmlns="http://www.w3.org/2000/svg" xmlns:xlink="http://www.w3.org/1999/xlink" xml:space="preserve" xmlns:serif="http://www.serif.com/" style="fill-rule:evenodd;clip-rule:evenodd;stroke-linejoin:round;stroke-miterlimit:2;"><g><path d="M132.012,383.33c-27.818,0 -52.26,-2.684 -73.326,-8.052c-21.067,-5.368 -40.628,-12.038 -58.685,-20.009l0,-86.381l8.296,0c18.22,15.454 38.31,27.33 60.271,35.626c21.961,8.296 43.272,12.445 63.932,12.445c5.206,0 12.079,-0.569 20.619,-1.708c8.54,-1.139 15.414,-2.928 20.619,-5.368c6.344,-2.765 11.713,-6.629 16.105,-11.591c4.392,-4.962 6.588,-11.509 6.588,-19.643c0,-9.11 -3.579,-16.512 -10.737,-22.205c-7.158,-5.694 -15.698,-9.842 -25.621,-12.445c-12.363,-3.254 -25.581,-6.344 -39.652,-9.273c-14.071,-2.928 -27.208,-6.507 -39.408,-10.737c-28.143,-9.923 -48.315,-23.263 -60.515,-40.018c-12.201,-16.756 -18.301,-37.741 -18.301,-62.956c0,-33.999 14.397,-61.532 43.19,-82.599c28.794,-21.067 64.745,-31.6 107.854,-31.6c21.636,0 43.15,2.196 64.542,6.588c21.392,4.392 40.547,10.33 57.465,17.813l0,82.965l-8.052,0c-13.502,-11.55 -29.973,-21.311 -49.413,-29.282c-19.44,-7.971 -39.408,-11.957 -59.905,-11.957c-7.971,0 -15.129,0.569 -21.473,1.708c-6.344,1.139 -13.014,3.335 -20.009,6.588c-5.694,2.603 -10.615,6.466 -14.763,11.591c-4.148,5.124 -6.222,10.859 -6.222,17.203c0,9.273 3.294,16.634 9.883,22.083c6.588,5.45 19.318,10.371 38.188,14.763c12.201,2.765 23.954,5.45 35.26,8.052c11.306,2.603 23.385,6.182 36.236,10.737c25.215,9.11 43.963,21.351 56.245,36.724c12.282,15.373 18.423,35.667 18.423,60.881c0,36.114 -14.193,65.152 -42.58,87.113c-28.387,21.961 -66.738,32.942 -115.053,32.942Z" style="fill-rule:nonzero;"/><path d="M638.848,376.742l0,-136.892c0,-13.502 -0.244,-24.889 -0.732,-34.162c-0.488,-9.273 -1.952,-16.837 -4.392,-22.693c-2.44,-5.856 -6.222,-10.127 -11.347,-12.811c-5.124,-2.684 -12.323,-4.026 -21.595,-4.026c-6.507,0 -12.933,1.423 -19.277,4.27c-6.344,2.847 -13.258,6.873 -20.741,12.079l0,194.235l-85.893,0l0,-136.892c0,-13.339 -0.285,-24.686 -0.854,-34.04c-0.569,-9.354 -2.074,-16.959 -4.514,-22.815c-2.44,-5.856 -6.222,-10.127 -11.347,-12.811c-5.124,-2.684 -12.241,-4.026 -21.351,-4.026c-6.995,0 -13.827,1.627 -20.497,4.88c-6.67,3.254 -13.177,7.076 -19.521,11.469l0,194.235l-85.405,0l0,-274.028l85.405,0l0,30.258c13.99,-11.875 27.167,-21.148 39.53,-27.818c12.363,-6.67 26.272,-10.005 41.726,-10.005c16.756,0 31.478,3.986 44.167,11.957c12.689,7.971 22.368,19.846 29.038,35.626c16.43,-15.292 31.925,-27.045 46.485,-35.26c14.56,-8.215 29.322,-12.323 44.289,-12.323c12.689,0 24.076,2.033 34.162,6.1c10.086,4.067 18.626,10.167 25.621,18.301c7.646,8.785 13.38,19.236 17.203,31.356c3.823,12.119 5.734,27.94 5.734,47.461l0,178.374l-85.893,0Z" style="fill-rule:nonzero;"/><path d="M913.998,305.246l0,-57.099c-14.478,1.464 -26.191,2.725 -35.138,3.782c-8.947,1.057 -17.732,3.132 -26.354,6.222c-7.483,2.603 -13.299,6.548 -17.447,11.835c-4.148,5.287 -6.222,12.323 -6.222,21.107c0,12.851 3.457,21.677 10.371,26.476c6.914,4.799 17.122,7.198 30.624,7.198c7.483,0 15.129,-1.708 22.937,-5.124c7.808,-3.416 14.885,-8.215 21.229,-14.397Zm0,42.458c-5.856,4.88 -11.103,9.273 -15.739,13.177c-4.636,3.904 -10.859,7.808 -18.667,11.713c-7.646,3.742 -15.088,6.588 -22.327,8.54c-7.239,1.952 -17.366,2.928 -30.38,2.928c-24.239,0 -44.37,-8.134 -60.393,-24.401c-16.024,-16.268 -24.035,-36.765 -24.035,-61.492c0,-20.335 4.067,-36.765 12.201,-49.291c8.134,-12.526 19.846,-22.449 35.138,-29.77c15.454,-7.483 33.918,-12.689 55.391,-15.617c21.473,-2.928 44.573,-5.206 69.3,-6.832l0,-1.464c0,-15.129 -5.572,-25.581 -16.715,-31.356c-11.143,-5.775 -27.858,-8.662 -50.145,-8.662c-10.086,0 -21.88,1.83 -35.382,5.49c-13.502,3.66 -26.679,8.337 -39.53,14.031l-7.32,0l0,-66.128c8.459,-2.44 22.124,-5.328 40.994,-8.662c18.87,-3.335 37.904,-5.002 57.099,-5.002c47.176,0 81.541,7.849 103.096,23.547c21.555,15.698 32.332,39.652 32.332,71.862l0,186.427l-84.917,0l0,-29.038Z" style="fill-rule:nonzero;"/><path d="M1211.12,183.483l-7.076,0c-3.254,-1.139 -7.971,-1.993 -14.153,-2.562c-6.182,-0.569 -13.014,-0.854 -20.497,-0.854c-8.947,0 -18.342,1.301 -28.184,3.904c-9.842,2.603 -19.399,5.694 -28.672,9.273l0,183.499l-85.405,0l0,-274.028l85.405,0l0,39.286c3.904,-3.579 9.313,-8.093 16.227,-13.543c6.914,-5.45 13.217,-9.801 18.911,-13.055c6.182,-3.742 13.38,-6.954 21.595,-9.639c8.215,-2.684 15.983,-4.026 23.303,-4.026c2.765,0 5.856,0.081 9.273,0.244c3.416,0.163 6.507,0.407 9.273,0.732l0,80.769Z" style="fill-rule:nonzero;"/><path d="M1363.736,382.11c-34.813,0 -60.149,-7.158 -76.01,-21.473c-15.861,-14.315 -23.791,-37.741 -23.791,-70.276l0,-128.107l-32.698,0l0,-59.539l32.698,0l0,-78.329l85.405,0l0,78.329l82.233,0l0,59.539l-82.233,0l0,97.118c0,9.598 0.081,17.976 0.244,25.133c0.163,7.158 1.464,13.583 3.904,19.277c2.277,5.694 6.304,10.208 12.079,13.543c5.775,3.335 14.193,5.002 25.255,5.002c4.555,0 10.533,-0.976 17.935,-2.928c7.402,-1.952 12.567,-3.742 15.495,-5.368l7.32,0l0,60.271c-9.273,2.44 -19.114,4.352 -29.526,5.734c-10.411,1.383 -23.181,2.074 -38.31,2.074Z" style="fill-rule:nonzero;"/></g><g><path d="M1452.572,379.686l122.739,-363.337l99.558,0l122.739,363.337l-93.945,0l-22.693,-74.18l-114.199,0l-22.693,74.18l-91.505,0Zm208.388,-140.064l-37.09,-119.811l-37.09,119.811l74.18,0Z" style="fill:#03ae5f;fill-rule:nonzero;"/><path d="M2062.988,379.686l-85.405,0l0,-28.55c-5.531,4.555 -11.835,9.435 -18.911,14.641c-7.076,5.206 -13.299,9.11 -18.667,11.713c-6.832,3.254 -13.583,5.694 -20.253,7.32c-6.67,1.627 -14.641,2.44 -23.913,2.44c-31.234,0 -55.961,-12.933 -74.18,-38.798c-18.22,-25.865 -27.33,-60.434 -27.33,-103.706c0,-23.913 3.091,-44.655 9.273,-62.224c6.182,-17.569 14.722,-32.861 25.621,-45.875c9.923,-11.875 21.961,-21.27 36.114,-28.184c14.153,-6.914 29.119,-10.371 44.899,-10.371c14.315,0 26.069,1.505 35.26,4.514c9.191,3.01 19.887,7.686 32.088,14.031l0,-116.639l85.405,0l0,379.686Zm-85.405,-75.644l0,-134.452c-4.23,-2.115 -9.761,-3.864 -16.593,-5.246c-6.832,-1.383 -12.689,-2.074 -17.569,-2.074c-20.497,0 -35.911,7.158 -46.241,21.473c-10.33,14.315 -15.495,34.325 -15.495,60.027c0,27.004 4.108,46.525 12.323,58.563c8.215,12.038 21.514,18.057 39.896,18.057c7.483,0 15.048,-1.464 22.693,-4.392c7.646,-2.928 14.641,-6.914 20.985,-11.957Z" style="fill:#03ae5f;fill-rule:nonzero;"/><path d="M2196.844,387.25c-20.172,0 -39.246,-2.196 -57.221,-6.588c-17.976,-4.392 -32.82,-9.517 -44.533,-15.373l0,-72.228l7.076,0c4.067,3.091 8.703,6.507 13.909,10.249c5.206,3.742 12.445,7.646 21.717,11.713c7.971,3.742 16.959,6.954 26.964,9.639c10.005,2.684 20.863,4.026 32.576,4.026c12.038,0 22.653,-1.871 31.844,-5.612c9.191,-3.742 13.787,-9.679 13.787,-17.813c0,-6.344 -2.115,-11.143 -6.344,-14.397c-4.23,-3.254 -12.445,-6.344 -24.645,-9.273c-6.507,-1.627 -14.722,-3.376 -24.645,-5.246c-9.923,-1.871 -18.708,-4.026 -26.354,-6.466c-21.473,-6.67 -37.619,-16.552 -48.437,-29.648c-10.818,-13.095 -16.227,-30.298 -16.227,-51.609c0,-12.201 2.806,-23.71 8.418,-34.528c5.612,-10.818 13.868,-20.457 24.767,-28.916c10.899,-8.296 24.361,-14.885 40.384,-19.765c16.024,-4.88 34.121,-7.32 54.293,-7.32c19.196,0 36.846,1.911 52.951,5.734c16.105,3.823 29.688,8.418 40.75,13.787l0,69.3l-6.832,0c-2.928,-2.277 -7.564,-5.328 -13.909,-9.151c-6.344,-3.823 -12.526,-7.117 -18.545,-9.883c-7.158,-3.254 -15.17,-5.938 -24.035,-8.052c-8.866,-2.115 -17.935,-3.172 -27.208,-3.172c-12.363,0 -22.815,2.115 -31.356,6.344c-8.54,4.23 -12.811,9.842 -12.811,16.837c0,6.182 2.115,11.062 6.344,14.641c4.23,3.579 13.421,7.076 27.574,10.493c7.32,1.789 15.739,3.538 25.255,5.246c9.517,1.708 18.667,4.026 27.452,6.954c19.684,6.344 34.609,15.658 44.777,27.94c10.167,12.282 15.251,28.59 15.251,48.925c0,12.851 -3.01,25.093 -9.029,36.724c-6.019,11.631 -14.56,21.433 -25.621,29.404c-11.713,8.622 -25.499,15.292 -41.36,20.009c-15.861,4.718 -34.853,7.076 -56.977,7.076Z" style="fill:#03ae5f;fill-rule:nonzero;"/></g></svg>